<svg width="20" height="12" viewBox="0 0 20 12" fill="none" xmlns="http://www.w3.org/2000/svg">
<path d="M13.0582 0.793783H18.0488V1.95099H13.0582V0.793783ZM8.05754 5.37238C9.16073 4.8679 9.73859 4.10042 9.73859 2.91452C9.73859 0.569038 7.91245 0 5.80363 0H0V11.7729H5.96623C8.20263 11.7729 10.3014 10.7448 10.3014 8.35386C10.3014 6.87627 9.57098 5.78362 8.05754 5.37238ZM2.70669 2.00837H5.24578C6.22389 2.00837 7.10194 2.26898 7.10194 3.35445C7.10194 4.35386 6.41901 4.75553 5.45091 4.75553H2.70669V2.00837ZM5.596 9.77406H2.70419V6.53198H5.65353C6.84428 6.53198 7.59725 7.00777 7.59725 8.21279C7.59725 9.39868 6.69919 9.77406 5.596 9.77406ZM20 7.63419C20 5.11178 18.4565 3.01016 15.6648 3.01016C12.9506 3.01016 11.1044 4.96354 11.1044 7.52421C11.1044 10.1781 12.853 12 15.6648 12C17.7936 12 19.172 11.0843 19.8349 9.1309H17.676C17.4409 9.86013 16.4853 10.2427 15.7423 10.2427C14.3064 10.2427 13.556 9.43933 13.556 8.07412H19.9825C19.99 7.93305 20 7.78482 20 7.63419ZM13.556 6.59653C13.6335 5.47519 14.4165 4.77466 15.5872 4.77466C16.818 4.77466 17.4334 5.46563 17.541 6.59653H13.556Z" fill="#A8A8A8"/>
</svg>
