<svg width="18" height="13" viewBox="0 0 18 13" fill="none" xmlns="http://www.w3.org/2000/svg">
<path d="M16.7143 0H1.28571C0.944722 0 0.617695 0.135459 0.376577 0.376577C0.135459 0.617695 0 0.944722 0 1.28571V11.5714C0 11.9124 0.135459 12.2394 0.376577 12.4806C0.617695 12.7217 0.944722 12.8571 1.28571 12.8571H16.7143C17.0553 12.8571 17.3823 12.7217 17.6234 12.4806C17.8645 12.2394 18 11.9124 18 11.5714V1.28571C18 0.944722 17.8645 0.617695 17.6234 0.376577C17.3823 0.135459 17.0553 0 16.7143 0V0ZM15.3 1.28571L9 5.64429L2.7 1.28571H15.3ZM1.28571 11.5714V1.87071L8.63357 6.95571C8.74118 7.03037 8.86903 7.07037 9 7.07037C9.13097 7.07037 9.25882 7.03037 9.36643 6.95571L16.7143 1.87071V11.5714H1.28571Z" fill="white"/>
</svg>
