<svg width="18" height="18" viewBox="0 0 18 18" fill="none" xmlns="http://www.w3.org/2000/svg">
  <path d="M8.99899 0.000244914C13.9721 -0.00182073 18 4.13359 18 9.23779C18 13.2741 15.4803 16.7051 11.9712 17.9651C11.4986 18.087 11.571 17.742 11.571 17.5066V15.9057C14.2999 16.2341 14.4105 14.3792 14.5935 14.0693C14.9635 13.4207 15.8382 13.2555 15.5768 12.9456C14.9554 12.6172 14.322 13.0282 13.588 14.1416C13.0571 14.9493 12.0215 14.813 11.4966 14.6787C11.382 14.1933 11.1366 13.7595 10.7988 13.4228C13.6262 12.9022 14.8046 11.1299 14.8046 9.02297C14.8046 8.00047 14.4768 7.06061 13.8333 6.30252C14.2435 5.0528 13.7951 3.9828 13.7348 3.82375C12.5664 3.71633 11.3518 4.68305 11.2573 4.75948C10.5937 4.57564 9.83555 4.47856 8.98693 4.47856C8.13429 4.47856 7.37415 4.57977 6.7045 4.76568C6.47726 4.58803 5.35113 3.75765 4.26522 3.85886C4.2069 4.01792 3.76852 5.06313 4.15462 6.29632C3.50307 7.05648 3.17126 8.00461 3.17126 9.02916C3.17126 11.1402 4.35772 12.9146 7.19316 13.4269C6.9503 13.6722 6.75746 13.9648 6.62591 14.2876C6.49436 14.6103 6.42674 14.9568 6.42699 15.3066V17.6305C6.4109 17.8164 6.42699 18.0002 6.12535 18.0002C2.56396 16.7671 0 13.3112 0 9.23986C0 4.13359 4.02994 0.000244914 8.99899 0.000244914Z" fill="#A8A8A8"/>
</svg>
