<svg width="18" height="19" viewBox="0 0 18 19" fill="none" xmlns="http://www.w3.org/2000/svg">
<path d="M8.99301 4.37012C7.76719 4.37012 6.59158 4.85707 5.7248 5.72385C4.85802 6.59064 4.37106 7.76625 4.37106 8.99206C4.37106 10.2179 4.85802 11.3935 5.7248 12.2603C6.59158 13.1271 7.76719 13.614 8.99301 13.614C10.2188 13.614 11.3944 13.1271 12.2612 12.2603C13.128 11.3935 13.615 10.2179 13.615 8.99206C13.615 7.76625 13.128 6.59064 12.2612 5.72385C11.3944 4.85707 10.2188 4.37012 8.99301 4.37012ZM8.99301 11.9937C8.19665 11.9937 7.43291 11.6774 6.8698 11.1143C6.30669 10.5512 5.99034 9.78742 5.99034 8.99106C5.99034 8.19471 6.30669 7.43097 6.8698 6.86786C7.43291 6.30475 8.19665 5.9884 8.99301 5.9884C9.78937 5.9884 10.5531 6.30475 11.1162 6.86786C11.6793 7.43097 11.9957 8.19471 11.9957 8.99106C11.9957 9.78742 11.6793 10.5512 11.1162 11.1143C10.5531 11.6774 9.78937 11.9937 8.99301 11.9937Z" fill="white"/>
<path d="M13.7983 5.27856C14.3937 5.27856 14.8763 4.79592 14.8763 4.20056C14.8763 3.6052 14.3937 3.12256 13.7983 3.12256C13.203 3.12256 12.7203 3.6052 12.7203 4.20056C12.7203 4.79592 13.203 5.27856 13.7983 5.27856Z" fill="white"/>
<path d="M17.5232 3.10462C17.2918 2.50707 16.9382 1.96441 16.485 1.51139C16.0318 1.05836 15.489 0.704958 14.8914 0.473789C14.192 0.211263 13.4532 0.0693103 12.7064 0.0539759C11.7438 0.0119946 11.4389 0 8.998 0C6.55709 0 6.24422 -1.00538e-07 5.28965 0.0539759C4.54337 0.0685263 3.80507 0.210508 3.10662 0.473789C2.50882 0.704688 1.96589 1.058 1.51266 1.51106C1.05943 1.96411 0.705915 2.50691 0.474789 3.10462C0.21221 3.80392 0.0705831 4.54282 0.0559751 5.28965C0.0129942 6.25122 0 6.55609 0 8.998C0 11.4389 -7.44727e-09 11.7498 0.0559751 12.7064C0.0709685 13.454 0.211906 14.1917 0.474789 14.8924C0.706564 15.4899 1.06042 16.0325 1.51376 16.4854C1.9671 16.9384 2.50995 17.2919 3.10762 17.5232C3.80474 17.7963 4.54335 17.9484 5.29165 17.973C6.25422 18.015 6.55908 18.028 9 18.028C11.4409 18.028 11.7538 18.028 12.7084 17.973C13.4551 17.9578 14.1939 17.8162 14.8934 17.5542C15.4909 17.3225 16.0335 16.9688 16.4866 16.5156C16.9398 16.0625 17.2935 15.5199 17.5252 14.9224C17.7881 14.2227 17.929 13.485 17.944 12.7373C17.987 11.7758 18 11.4709 18 9.02899C18 6.58707 18 6.27721 17.944 5.32063C17.9324 4.56324 17.79 3.81355 17.5232 3.10462ZM16.3058 12.6324C16.2993 13.2084 16.1942 13.7791 15.9949 14.3196C15.8448 14.7083 15.615 15.0613 15.3203 15.3559C15.0255 15.6504 14.6724 15.88 14.2837 16.0299C13.7491 16.2282 13.1845 16.3334 12.6144 16.3407C11.6648 16.3847 11.3969 16.3957 8.96202 16.3957C6.5251 16.3957 6.27621 16.3957 5.30864 16.3407C4.73882 16.3338 4.17447 16.2286 3.64038 16.0299C3.25024 15.8809 2.89571 15.6517 2.59973 15.3571C2.30375 15.0625 2.07291 14.7091 1.92215 14.3196C1.72568 13.7849 1.62059 13.221 1.61128 12.6514C1.5683 11.7018 1.55831 11.4339 1.55831 8.999C1.55831 6.56308 1.55831 6.31419 1.61128 5.34562C1.61774 4.7699 1.72289 4.19955 1.92215 3.65937C2.22701 2.87072 2.85173 2.25 3.64038 1.94813C4.17473 1.75036 4.73892 1.64523 5.30864 1.63727C6.25922 1.59429 6.5261 1.5823 8.96202 1.5823C11.3979 1.5823 11.6478 1.5823 12.6144 1.63727C13.1845 1.64413 13.7492 1.74929 14.2837 1.94813C14.6724 2.09834 15.0255 2.32817 15.3202 2.62286C15.6149 2.91756 15.8447 3.27062 15.9949 3.65937C16.1914 4.19409 16.2964 4.75805 16.3058 5.32763C16.3487 6.27821 16.3597 6.54509 16.3597 8.98101C16.3597 11.4159 16.3597 11.6778 16.3167 12.6334H16.3058V12.6324Z" fill="white"/>
</svg>
