<svg width="15" height="15" viewBox="0 0 15 15" fill="none" xmlns="http://www.w3.org/2000/svg">
<path d="M1.70643 3.41287C2.64887 3.41287 3.41287 2.64887 3.41287 1.70643C3.41287 0.763996 2.64887 0 1.70643 0C0.763996 0 0 0.763996 0 1.70643C0 2.64887 0.763996 3.41287 1.70643 3.41287Z" fill="#A8A8A8"/>
<path d="M5.02416 4.70614V14.1734H7.96362V9.49164C7.96362 8.25627 8.19603 7.05989 9.72777 7.05989C11.2384 7.05989 11.2572 8.4723 11.2572 9.56963V14.1742H14.1982V8.98236C14.1982 6.43207 13.6491 4.47217 10.6683 4.47217C9.23721 4.47217 8.27792 5.25753 7.88563 6.00078H7.84585V4.70614H5.02416ZM0.233978 4.70614H3.17812V14.1734H0.233978V4.70614Z" fill="#A8A8A8"/>
</svg>
