<svg width="19" height="18" viewBox="0 0 19 18" fill="none" xmlns="http://www.w3.org/2000/svg">
  <path d="M6.66161 7.65025L10.9546 0.216267C9.62712 -0.0801916 8.24965 -0.0714095 6.92605 0.241951C5.60246 0.555311 4.36727 1.16507 3.31362 2.02526L6.60761 7.74025L6.66161 7.65025ZM17.5876 6.30025C16.7596 3.67226 14.7526 1.56626 12.1876 0.594266L8.89361 6.30025H17.5876ZM17.8216 7.20025H11.0806L11.3416 7.65025L15.6256 15.0752C17.1563 13.4229 18.0051 11.2526 18.0016 9.00024C18.0016 8.37925 17.9386 7.78525 17.8216 7.20025ZM5.88761 9.00024L2.37762 2.92526C1.41328 3.96966 0.711201 5.22848 0.329366 6.59776C-0.0524685 7.96705 -0.103108 9.40752 0.181629 10.8002H6.92261L5.88761 9.00024ZM0.415628 11.7002C1.24363 14.3282 3.25062 16.4342 5.81561 17.4062L9.1096 11.7002H0.415628ZM10.5586 11.7002L7.04861 17.7842C8.3761 18.0807 9.75356 18.0719 11.0772 17.7585C12.4008 17.4452 13.6359 16.8354 14.6896 15.9752L11.3956 10.2602L10.5586 11.7002Z" fill="#A8A8A8"/>
</svg>
