<svg width="118" height="79" viewBox="0 0 118 79" fill="none" xmlns="http://www.w3.org/2000/svg">
<g filter="url(#filter0_d)">
<path d="M5 10H113V72C113 73.1046 112.105 74 111 74H7C5.89543 74 5 73.1046 5 72V10Z" fill="#4D4D4D"/>
<path d="M5 7C5 5.89543 5.89543 5 7 5H111C112.105 5 113 5.89543 113 7V10H5V7Z" fill="#4385E9"/>
<circle cx="8.88703" cy="7.88703" r="0.887029" fill="#E94343"/>
<circle cx="11.887" cy="7.88703" r="0.887029" fill="#E9BB43"/>
<circle cx="15" cy="7.88703" r="0.887029" fill="#46E943"/>
</g>
<rect x="12" y="19" width="21" height="1" rx="0.5" fill="#00BF00"/>
<rect x="20" y="61" width="82" height="1" rx="0.5" fill="#00BF00"/>
<rect x="12" y="25" width="3" height="1" rx="0.5" fill="white"/>
<rect x="20" y="25" width="82" height="1" rx="0.5" fill="white"/>
<rect x="20" y="31" width="82" height="1" rx="0.5" fill="white"/>
<rect x="20" y="37" width="82" height="1" rx="0.5" fill="white"/>
<rect x="20" y="43" width="82" height="1" rx="0.5" fill="white"/>
<rect x="20" y="55" width="82" height="1" rx="0.5" fill="white"/>
<rect x="38" y="19" width="7" height="1" rx="0.5" fill="#DB0571"/>
<rect x="20" y="49" width="7" height="1" rx="0.5" fill="#DB0571"/>
<rect x="50" y="19" width="7" height="1" rx="0.5" fill="#EBEE18"/>
<defs>
<filter id="filter0_d" x="0" y="0" width="118" height="79" filterUnits="userSpaceOnUse" color-interpolation-filters="sRGB">
<feFlood flood-opacity="0" result="BackgroundImageFix"/>
<feColorMatrix in="SourceAlpha" type="matrix" values="0 0 0 0 0 0 0 0 0 0 0 0 0 0 0 0 0 0 127 0"/>
<feOffset/>
<feGaussianBlur stdDeviation="2.5"/>
<feColorMatrix type="matrix" values="0 0 0 0 0 0 0 0 0 0 0 0 0 0 0 0 0 0 0.1 0"/>
<feBlend mode="normal" in2="BackgroundImageFix" result="effect1_dropShadow"/>
<feBlend mode="normal" in="SourceGraphic" in2="effect1_dropShadow" result="shape"/>
</filter>
</defs>
</svg>
