<svg width="118" height="79" viewBox="0 0 118 79" fill="none" xmlns="http://www.w3.org/2000/svg">
<g filter="url(#filter0_d)">
<path d="M5 10H113V72C113 73.1046 112.105 74 111 74H7C5.89543 74 5 73.1046 5 72V10Z" fill="white"/>
<path d="M5 7C5 5.89543 5.89543 5 7 5H111C112.105 5 113 5.89543 113 7V10H5V7Z" fill="#4385E9"/>
<circle cx="8.88703" cy="7.88703" r="0.887029" fill="#E94343"/>
<circle cx="11.887" cy="7.88703" r="0.887029" fill="#E9BB43"/>
<circle cx="15" cy="7.88703" r="0.887029" fill="#46E943"/>
</g>
<rect opacity="0.2" x="10" y="15" width="98" height="17" fill="#4385E9"/>
<rect opacity="0.2" x="10" y="37" width="32" height="32" fill="#4385E9"/>
<rect opacity="0.2" x="47" y="37" width="17" height="17" fill="#4385E9"/>
<rect opacity="0.2" x="69" y="37" width="17" height="17" fill="#4385E9"/>
<rect opacity="0.2" width="61" height="10" transform="matrix(1 0 0 -1 47 69)" fill="#4385E9"/>
<rect opacity="0.2" x="91" y="37" width="17" height="17" fill="#4385E9"/>
<defs>
<filter id="filter0_d" x="0" y="0" width="118" height="79" filterUnits="userSpaceOnUse" color-interpolation-filters="sRGB">
<feFlood flood-opacity="0" result="BackgroundImageFix"/>
<feColorMatrix in="SourceAlpha" type="matrix" values="0 0 0 0 0 0 0 0 0 0 0 0 0 0 0 0 0 0 127 0"/>
<feOffset/>
<feGaussianBlur stdDeviation="2.5"/>
<feColorMatrix type="matrix" values="0 0 0 0 0 0 0 0 0 0 0 0 0 0 0 0 0 0 0.1 0"/>
<feBlend mode="normal" in2="BackgroundImageFix" result="effect1_dropShadow"/>
<feBlend mode="normal" in="SourceGraphic" in2="effect1_dropShadow" result="shape"/>
</filter>
</defs>
</svg>
