<svg width="359" height="512" viewBox="0 0 359 512" fill="none" xmlns="http://www.w3.org/2000/svg">
<path fill-rule="evenodd" clip-rule="evenodd" d="M158.724 0.178442C158.724 68.7922 158.724 137.406 158.724 206.638C160.595 206.638 161.219 205.402 163.091 204.783C163.091 169.549 163.091 133.079 163.091 97.2267C181.182 97.8449 198.65 95.3723 212.374 99.6993C225.475 103.408 235.456 110.826 242.942 120.098C250.428 129.37 256.043 141.733 256.667 157.186C256.667 173.258 251.052 184.385 242.942 194.275C267.896 201.693 289.106 214.056 306.574 230.127C323.418 245.581 337.766 265.361 347.123 288.233C356.481 311.104 361.472 343.247 357.105 373.536C352.738 401.353 342.133 424.842 328.408 444.004C307.822 472.439 279.125 494.074 241.071 505.2C227.97 508.909 214.246 512 198.026 512C164.338 512 140.009 504.582 118.174 492.838C101.954 484.184 88.23 473.675 75.7532 460.694C71.3863 456.367 67.6432 452.04 64.524 447.095C72.634 441.532 80.7439 435.969 88.8538 430.405C95.716 438.441 102.578 445.859 110.064 452.04C118.174 458.222 127.532 463.167 137.513 468.112C157.476 477.384 178.687 484.184 209.255 481.711C236.08 479.857 257.291 472.439 273.51 459.458C280.996 453.277 288.482 445.241 294.721 437.823C307.822 421.751 318.427 405.061 324.665 381.572C327.784 369.827 329.032 356.228 328.408 342.629C327.161 315.431 318.427 295.65 307.198 277.724C295.969 260.416 280.996 246.199 262.905 235.691C244.814 225.182 222.979 217.146 194.907 217.146C194.283 284.524 194.907 357.465 194.907 426.696C194.907 429.169 195.53 431.642 194.907 433.496C194.907 434.732 193.035 435.969 191.787 437.205C183.677 444.622 174.32 452.04 166.834 459.458C166.21 459.458 165.586 461.312 164.962 460.694C164.962 385.281 164.962 310.486 164.338 235.691C162.467 235.691 161.843 236.927 159.972 236.927C159.348 238.163 159.348 239.399 159.348 240.636C159.348 261.652 159.348 284.524 159.348 305.541C159.348 327.176 151.862 345.102 142.504 358.083C133.146 371.682 120.046 382.19 106.945 392.08C93.8445 401.971 78.8724 411.243 62.6525 418.042C62.6525 407.534 62.6525 397.026 62.6525 386.517C63.9002 385.281 65.1479 384.663 66.3956 383.426C75.7532 377.863 85.7346 371.682 94.4684 364.882C109.441 353.137 122.541 340.156 126.908 318.522C128.156 311.104 128.78 303.068 128.78 293.796C128.78 277.106 128.78 258.562 128.78 241.254C88.23 242.49 60.1572 228.273 38.9466 209.11C28.3413 199.838 19.6076 188.094 12.7454 174.494C5.88312 160.895 0.892402 144.824 0.268563 126.279C-1.60296 99.0812 6.50696 74.9736 18.3599 56.4294C22.103 50.2479 27.0937 44.6847 32.0844 39.7395C50.7996 19.3408 78.2485 2.03287 115.055 0.178442C129.403 -0.4397 143.752 0.796584 158.724 0.178442ZM53.2949 60.7564C39.5705 76.828 28.3413 97.8449 30.2129 128.752C31.4605 156.568 43.9373 176.349 60.1572 189.948C76.377 204.165 97.5876 214.674 128.156 213.437C128.156 152.241 128.156 91.0453 128.156 30.4674C91.973 29.2311 69.5148 42.2121 53.2949 60.7564ZM194.283 128.134C194.283 148.533 194.283 168.931 194.283 189.33C203.64 189.33 210.503 185.621 215.493 180.676C220.484 175.731 224.851 168.931 224.851 160.277C225.475 147.914 219.86 138.024 211.75 132.461C207.383 129.37 201.145 127.516 194.283 127.516V128.134Z" fill="#E94368"/>
</svg>
