<svg width="118" height="79" viewBox="0 0 118 79" fill="none" xmlns="http://www.w3.org/2000/svg">
<g filter="url(#filter0_d)">
<path d="M5 10H113V72C113 73.1046 112.105 74 111 74H7C5.89543 74 5 73.1046 5 72V10Z" fill="#4D4D4D"/>
<path d="M5 7C5 5.89543 5.89543 5 7 5H111C112.105 5 113 5.89543 113 7V10H5V7Z" fill="#4385E9"/>
<circle cx="8.88703" cy="7.88703" r="0.887029" fill="#E94343"/>
<circle cx="11.887" cy="7.88703" r="0.887029" fill="#E9BB43"/>
<circle cx="15" cy="7.88703" r="0.887029" fill="#46E943"/>
</g>
<path d="M59 10V74" stroke="#999999"/>
<rect x="11" y="18" width="7" height="1" rx="0.5" fill="#E9BB43"/>
<rect x="14" y="24" width="7" height="1" rx="0.5" fill="#E9BB43"/>
<rect x="14" y="30" width="7" height="1" rx="0.5" fill="#E9BB43"/>
<rect x="22" y="36" width="7" height="1" rx="0.5" fill="#E9BB43"/>
<rect x="22" y="48" width="7" height="1" rx="0.5" fill="#E9BB43"/>
<rect x="14" y="54" width="7" height="1" rx="0.5" fill="#E9BB43"/>
<rect x="14" y="66" width="7" height="1" rx="0.5" fill="#E9BB43"/>
<rect x="47" y="24" width="7" height="1" rx="0.5" fill="#E9BB43"/>
<rect x="24" y="24" width="20" height="1" rx="0.5" fill="white"/>
<rect x="27" y="42" width="20" height="1" rx="0.5" fill="white"/>
<rect x="14" y="60" width="20" height="1" rx="0.5" fill="white"/>
<path d="M59 10H113V72C113 73.1046 112.105 74 111 74H59V10Z" fill="white"/>
<rect opacity="0.2" x="64" y="15" width="44" height="18" fill="#4385E9"/>
<rect opacity="0.2" x="64" y="38" width="10" height="28" fill="#4385E9"/>
<rect opacity="0.2" x="79" y="55" width="29" height="11" fill="#4385E9"/>
<rect opacity="0.2" x="96" y="38" width="12" height="12" fill="#4385E9"/>
<rect opacity="0.2" x="79" y="38" width="12" height="12" fill="#4385E9"/>
<defs>
<filter id="filter0_d" x="0" y="0" width="118" height="79" filterUnits="userSpaceOnUse" color-interpolation-filters="sRGB">
<feFlood flood-opacity="0" result="BackgroundImageFix"/>
<feColorMatrix in="SourceAlpha" type="matrix" values="0 0 0 0 0 0 0 0 0 0 0 0 0 0 0 0 0 0 127 0"/>
<feOffset/>
<feGaussianBlur stdDeviation="2.5"/>
<feColorMatrix type="matrix" values="0 0 0 0 0 0 0 0 0 0 0 0 0 0 0 0 0 0 0.1 0"/>
<feBlend mode="normal" in2="BackgroundImageFix" result="effect1_dropShadow"/>
<feBlend mode="normal" in="SourceGraphic" in2="effect1_dropShadow" result="shape"/>
</filter>
</defs>
</svg>
